<svg version="1.2" xmlns="http://www.w3.org/2000/svg" viewBox="0 0 64 64" width="64" height="64">
	<title>circle_8</title>
	<style>
		.s0 { opacity: .5;fill: none;stroke: #000000;stroke-miterlimit:100;stroke-width: 4 } 
		.s1 { opacity: .5;fill: #000000 } 
	</style>
	<path id="Shape 1" fill-rule="evenodd" class="s0" d="m32 62c-16.6 0-30-12.5-30-28 0-15.5 13.4-28 30-28 16.6 0 30 12.5 30 28 0 15.5-13.4 28-30 28z"/>
	<path id="7" class="s1" d="m40 30.1v-8h8v8zm0-16v8h-16v-8zm-16 23.9v-7.9h16v7.9zm16 8v-8h7.9v8zm0 0v8h-15.9v-8zm-24-15.9v-8h8v8zm0 15.9v-8h8v8z"/>
</svg>